<?xml version="1.0" encoding="utf-8"?>
<!-- Generator: Adobe Illustrator 21.1.0, SVG Export Plug-In . SVG Version: 6.00 Build 0)  -->
<svg version="1.1" id="Layer_1" xmlns="http://www.w3.org/2000/svg" xmlns:xlink="http://www.w3.org/1999/xlink" x="0px" y="0px"
	 viewBox="0 0 132 24" enable-background="new 0 0 132 24" xml:space="preserve">
<path fill="#FFFFFF" d="M119.3,8.4c0.9-1.2,2.2-1.9,3.7-1.9c1.5,0,2.8,0.6,3.7,1.9c0.9,1.2,1.4,2.9,1.4,5.1c0,2.1-0.5,3.8-1.4,5
	c-0.9,1.2-2.2,1.9-3.7,1.9c-1.5,0-2.8-0.6-3.7-1.9c-0.9-1.2-1.4-2.9-1.4-5C118,11.3,118.4,9.6,119.3,8.4 M116.5,19.2
	c1.6,1.4,3.8,2.1,6.5,2.1c2.7,0,4.9-0.7,6.5-2.1c1.6-1.4,2.5-3.4,2.5-5.8c0-2.4-0.8-4.4-2.5-5.8c-1.6-1.4-3.8-2.1-6.5-2.1
	c-2.7,0-4.9,0.7-6.5,2.1c-1.6,1.4-2.4,3.4-2.4,5.8C114.1,15.9,114.9,17.8,116.5,19.2 M105.5,21.4c1.6,0,2.9-0.3,4-0.8
	c1.1-0.5,1.9-1.2,2.4-2.1l-0.3-3.8h-0.2c-0.2,1.4-0.6,2.5-1,3.3c-0.5,0.8-1.1,1.4-1.8,1.8c-0.8,0.4-1.8,0.6-3,0.6
	c-1.7,0-3-0.6-3.9-1.9c-0.9-1.2-1.4-2.9-1.4-5c0-2.1,0.5-3.8,1.4-5c0.9-1.2,2.3-1.8,4.1-1.8c1.3,0,2.4,0.3,3.3,1
	c0.9,0.6,1.5,1.7,1.9,3.2h0.2v-4c-1.6-0.8-3.5-1.2-5.7-1.2c-2.9,0-5.1,0.7-6.7,2.1c-1.6,1.4-2.4,3.3-2.4,5.8c0,2.5,0.8,4.4,2.4,5.8
	C100.5,20.6,102.7,21.3,105.5,21.4 M81.3,18.8c-1.2-0.9-1.7-2.3-1.7-4.1c0-0.9,0.2-1.8,0.7-2.5c0.7,0.8,1.9,2,3.5,3.4
	c1.6,1.4,3.1,2.6,4.5,3.7c-0.8,0.6-1.8,0.9-2.9,0.9C83.8,20.2,82.4,19.8,81.3,18.8 M96.3,20.8c-0.6-0.2-1.3-0.5-1.9-1
	c-0.7-0.5-1.6-1.2-2.7-2.2c0.7-1.3,1.1-3,1.1-4.9v-0.4c0-0.4,0.1-0.8,0.2-1c0.1-0.2,0.3-0.3,0.7-0.3h0h0.4v-0.3h-5.9v0.3h0.4h0
	c0.7,0,1.2,0.4,1.5,1.1c0.3,0.7,0.5,1.4,0.5,2.2s-0.1,1.4-0.3,2.1c-0.4-0.3-1.5-1.3-3.4-2.9c-1.9-1.6-3.1-2.9-3.8-3.7
	c-0.6-0.8-1-1.7-1-2.6c0-0.9,0.3-1.6,0.8-2.2C83.4,4.3,84.2,4,85.1,4s1.7,0.4,2.2,1.2c0.5,0.8,0.8,1.9,0.8,3.1h0.2l0.9-3.6
	c-0.4-0.6-1.1-1-2-1.3c-0.9-0.3-1.9-0.5-3-0.5c-2.4,0-4.1,0.7-5.2,2c-0.6,0.7-0.9,1.6-0.9,2.7c0,1.1,0.4,2.2,1.1,3.4
	c-0.9,0.3-1.8,0.8-2.5,1.5c-0.4,0.4-0.7,0.8-0.9,1.3c-0.2,0.5-0.3,1.2-0.3,1.9c0,0.7,0.2,1.5,0.6,2.1c0.4,0.7,0.8,1.2,1.4,1.6
	c1.7,1.2,4,1.8,6.9,1.8c2,0,3.6-0.4,5-1.2c0.8,0.5,1.9,0.8,3.2,1c0.6,0.1,1.8,0.1,3.8-0.1V20.8z M73.6,16.4h-0.2
	c-0.3,1.1-0.9,2-1.6,2.7c-0.7,0.6-1.6,1-2.7,1h-3v-6H69c0.4,0,0.7,0.1,1,0.3c0.6,0.4,0.9,0.9,0.9,1.7v0.2h0.3v-5.4h-0.3V11
	c0,0.6-0.2,1-0.5,1.4S69.5,13,68.9,13h-2.9V6.9h3.6c0.7,0,1.3,0.2,1.7,0.7c0.4,0.4,0.6,1,0.6,1.7v0.2h0.3v-4
	c-0.2,0.1-0.6,0.2-1.1,0.3c-0.5,0.1-1,0.1-1.5,0.1h-8.9v0.3H61c0.4,0,0.7,0.1,1,0.4c0.3,0.3,0.4,0.6,0.4,0.9v12
	c0,0.4-0.2,0.7-0.4,0.9c-0.3,0.3-0.6,0.4-1,0.4h-0.3V21h11.9L73.6,16.4z M47.5,20V6.8h2.9c1.6,0,2.8,0.6,3.8,1.8s1.4,2.8,1.4,4.8
	c0,2.1-0.5,3.7-1.4,4.8c-0.9,1.2-2.2,1.7-3.8,1.7H47.5z M50.6,5.9h-8.6v0.3h0.3c0.4,0,0.7,0.1,1,0.4c0.3,0.3,0.4,0.6,0.5,0.9v12
	c0,0.4-0.2,0.7-0.4,1c-0.3,0.3-0.6,0.4-1,0.4h-0.3V21h8.6c2.7,0,4.8-0.7,6.4-2c1.5-1.3,2.3-3.2,2.3-5.6c0-2.4-0.8-4.2-2.3-5.6
	C55.5,6.5,53.3,5.9,50.6,5.9 M33.4,21h7.2v-0.3h-0.3c-0.4,0-0.7-0.1-1-0.4c-0.3-0.3-0.4-0.6-0.5-1v-12c0-0.4,0.2-0.7,0.5-0.9
	c0.3-0.3,0.6-0.4,1-0.4h0.3V5.9h-7.2v0.3h0.3c0.4,0,0.8,0.1,1,0.4c0.3,0.3,0.4,0.6,0.4,0.9v12c0,0.4-0.1,0.7-0.4,0.9
	c-0.3,0.3-0.6,0.4-1,0.4h-0.3V21z M23.7,6.9c0.6,0,1.1,0.2,1.6,0.5c0.3,0.2,0.6,0.5,0.7,0.9c0.2,0.4,0.3,0.8,0.3,1.1
	c0,0.3,0,0.6,0,0.8c0,0.2,0,0.4-0.1,0.7c-0.3,1.7-1.2,2.5-2.6,2.5H23v0.2c0.3,0,0.5,0.2,0.8,0.4c0.3,0.3,0.5,0.6,0.7,1.1
	c0.2,0.8,0.8,2,1.7,3.4c0.6,0.9,1.3,1.6,2,1.9c0.8,0.3,1.8,0.5,3.2,0.5h2.1v-0.3c-0.5,0-1-0.1-1.3-0.4c-0.4-0.2-0.8-0.8-1.4-1.6
	c-0.6-0.8-1.2-1.7-1.7-2.6c-0.3-0.4-0.6-0.9-1.1-1.3c-0.4-0.4-0.9-0.7-1.4-0.9c1.2-0.2,2-0.6,2.6-1.4c0.6-0.8,0.9-1.7,0.9-2.6
	c0-1.5-0.6-2.6-1.7-3.3c-1-0.6-2.3-0.9-3.8-0.9h-7.8v0.3h0.3c0.4,0,0.7,0.1,0.9,0.4c0.3,0.3,0.4,0.6,0.4,0.9v12
	c0,0.4-0.1,0.7-0.4,0.9c-0.3,0.3-0.6,0.4-0.9,0.4h-0.3V21h7v-0.3h-0.3c-0.4,0-0.7-0.1-0.9-0.4c-0.3-0.2-0.4-0.6-0.4-1V6.9H23
	C23.3,6.9,23.5,6.9,23.7,6.9 M8.8,10.6c-0.6,0.6-1.3,0.8-2.2,0.8v0.2c1.2,0,2.2,0.3,3,1c0.8,0.7,1.2,1.7,1.2,3.1
	c0,1.4-0.3,2.4-1,3.1c-0.7,0.7-1.6,1-2.8,1H6.9H5.8V4.4h0.7c2.1,0,3.2,1.2,3.2,3.6C9.7,9.2,9.4,10,8.8,10.6 M13.2,19.8
	c1.3-0.9,1.9-2.1,1.9-3.7c0-1.3-0.4-2.4-1.3-3.3C13,12,12,11.5,10.7,11.4c1.2-0.2,2.1-0.8,2.6-1.8c0.3-0.6,0.5-1.2,0.5-1.9
	c0-1.5-0.6-2.6-1.8-3.3S9.3,3.3,7.3,3.3H0v0.3h0.3c0.4,0,0.8,0.2,1.1,0.5C1.8,4.3,1.9,4.7,2,5.1v14.1c0,0.3-0.1,0.5-0.2,0.8
	c-0.3,0.5-0.8,0.8-1.4,0.8H0V21h8C10.2,21,12,20.6,13.2,19.8"/>
</svg>
