<?xml version="1.0" encoding="utf-8"?>
<!-- Generator: Adobe Illustrator 24.0.1, SVG Export Plug-In . SVG Version: 6.00 Build 0)  -->
<svg version="1.1" id="Layer_1" xmlns="http://www.w3.org/2000/svg" xmlns:xlink="http://www.w3.org/1999/xlink" x="0px" y="0px"
	 viewBox="0 0 162.42 66.21" style="enable-background:new 0 0 162.42 66.21;" xml:space="preserve">
<style type="text/css">
	.st0{fill:#DD3522;}
</style>
<g>
	<path class="st0" d="M162.42,6.86c-0.41,0.31-0.39,0.82-0.55,1.23c-0.16,0.4-0.26,0.83-0.38,1.25c-0.5,0.38-1.01,0.76-1.49,1.12
		c-1.14,0.22-2.29,0.39-3.4,0.68c-1.49,0.39-2.95,0.86-4.48,1.07c-0.86,0.12-1.76,0.29-2.55,0.64c-0.63,0.28-1.34,0.04-1.92,0.46
		c-0.35,0.25-0.83,0.33-1.15,0.61c-1.55,1.39-3.07,2.82-4.44,4.09c-0.63,1.3-0.44,2.5-0.48,3.68c-0.01,0.39-0.12,0.78-0.21,1.33
		c1.14,2.27,2.37,4.72,3.59,7.16c0.24,0.48,0.49,0.93,0.88,1.33c0.86,0.89,1.67,1.83,2.49,2.76c0.05,0.05,0.01,0.18,0.01,0.28
		c-0.07,0.05-0.14,0.14-0.22,0.14c-0.93,0.01-1.86,0.01-2.68,0.01c-0.98-1.16-1.94-2.2-2.79-3.31c-1.01-1.32-2.15-2.54-3.13-3.89
		c-0.51-0.71-1.15-1.4-2.02-1.85c-0.71-0.37-1.25-1.04-1.89-1.6c-0.88,0-1.76,0-2.76,0c0,0.33-0.05,0.7,0.01,1.05
		c0.19,1.03-0.36,1.96-0.3,2.98c0.06,1.03,0.03,2.06,0,3.09c-0.01,0.24-0.18,0.48-0.25,0.67c0.6,1.39,1.19,2.74,1.82,4.2
		c-1.04,0-1.91,0-2.93,0c-0.26-0.55-0.61-1.2-0.88-1.88c-0.32-0.81-0.52-1.66-0.87-2.45c-0.35-0.8-0.24-1.75-0.81-2.48
		c-0.09-1.69-0.9-3.21-1.15-4.87c-0.04-0.29-0.21-0.57-0.28-0.76c0.03-0.58,0.77-0.71,0.57-1.28c0.09-0.09,0.19-0.19,0.27-0.29
		c0,0.01,0.02,0.02,0.04,0.04c0.08-0.07,0.15-0.13,0.23-0.2c-0.03-0.03-0.06-0.06-0.09-0.09c-0.07,0.08-0.13,0.15-0.18,0.24
		c-0.08,0.11-0.17,0.2-0.27,0.29c-0.6,0.47-1.2,0.94-1.83,1.44c-3.3,0-6.62,0-10.28,0c0.47,0.2,0.64,0.27,0.75,0.33
		c-0.98,0.92-1.97,1.85-3.04,2.85c0.12,0.9,0.25,1.82,0.4,2.96c0.48,1.02,1.63,1.71,2.47,2.76c-0.98,0-1.95,0-3.01,0
		c-0.45-0.34-0.99-0.74-1.4-1.05c-0.3-2-0.57-3.85-0.87-5.83c0.2-0.16,0.52-0.42,0.71-0.58c0-0.51,0-0.83,0-1.14
		c-0.05-0.01-0.09-0.01-0.14-0.02c-0.04,0.22-0.08,0.45-0.12,0.67c-0.54,0.36-1.1,0.72-1.63,1.11c-0.76,0.55-1.52,1.1-2.25,1.69
		c-0.46,0.37-0.79,0.82-0.88,1.46c-0.21,1.41-0.72,2.78-0.54,4.17c-0.17,0.17-0.27,0.27-0.4,0.4c-0.85,0-1.73,0-2.7,0
		c-0.05-0.65,0.2-1.21,0.5-1.73c0.6-1.03,0.82-2.21,1.14-3.32c0.35-1.21,0.7-2.43,1.03-3.65c0.31-1.14,0.69-2.26,0.95-3.4
		c0.24-1.07,0.61-2.1,0.88-3.16c0.34-1.35,0.74-2.69,1.12-4.03c0.08-0.28,0.2-0.54,0.34-0.89c-1.84,0-3.56,0-5.32,0
		c-0.43-0.69-0.86-1.35-1.33-2.11c0.27-0.12,0.45-0.2,0.63-0.27c-0.19-0.38-0.38-0.75-0.67-1.32c1.29,0.47,2.36,0.96,3.46,1.38
		c1.1,0.42,2.13,0.97,3.38,1.33c0.06-0.11,0.18-0.34,0.18-0.34c0.97-0.19,1.74-0.19,2.34-0.51c0.68-0.37,1.5,0.21,2.04-0.52
		c0.19,0.13,0.33,0.23,0.47,0.32c0.17-0.17,0.33-0.33,0.38-0.38c2.49-0.47,4.85-0.91,7.54-1.42c1.79-1.17,3.83-2.55,5.92-3.85
		c1.69-1.04,3.34-2.14,4.98-3.27c0.63-0.43,1.4-0.67,2.27-0.65c2.72,0.08,5.44,0.03,8.16,0.03c0.7-0.78,1.56-1.31,2.63-1.8
		c0,0.93,0,1.75,0,2.57c0.07,0.01,0.13,0.03,0.2,0.04c0.07-0.16,0.13-0.32,0.21-0.51c1.18,0.4,2.36,0.79,3.53,1.21
		c2.05,0.72,4.06,1.54,6.15,2.14c0.25,0.07,0.5,0.16,0.73,0.28c0.72,0.41,1.47,0.6,2.3,0.57c1.08-0.04,2.16-0.01,3.24-0.01
		C162.42,6.48,162.42,6.67,162.42,6.86z M156.47,7.2c-0.48,0.71-0.82,1.22-1.14,1.7c0.33,0.4,0.64,0.67,1.14,0.39
		C156.47,8.72,156.47,8.12,156.47,7.2z M114.61,23.5c0,0.08,0,0.16,0,0.24c0.35-0.02,0.69-0.05,1.04-0.07
		c0-0.06-0.01-0.11-0.01-0.17C115.3,23.5,114.95,23.5,114.61,23.5z M112.96,18.95c0.03,0,0.06,0,0.09,0c0-0.09,0-0.19,0-0.28
		c-0.03,0-0.06,0-0.09,0C112.96,18.76,112.96,18.86,112.96,18.95z M114.27,17.64c0,0.03,0,0.06,0,0.09c0.09,0,0.19,0,0.28,0
		c0-0.03,0-0.06,0-0.09C114.46,17.64,114.37,17.64,114.27,17.64z M109.3,15.01c0.03,0,0.06,0,0.09,0c0-0.09,0-0.19,0-0.28
		c-0.03,0-0.06,0-0.09,0C109.3,14.83,109.3,14.92,109.3,15.01z M140.83,11.92c0.03,0,0.06,0,0.09,0c0-0.09,0-0.19,0-0.28
		c-0.03,0-0.06,0-0.09,0C140.83,11.73,140.83,11.83,140.83,11.92z M106.2,11.92c0.03,0,0.06,0,0.09,0c0-0.09,0-0.19,0-0.28
		c-0.03,0-0.06,0-0.09,0C106.2,11.73,106.2,11.83,106.2,11.92z M142.43,8.64c0,0.03,0,0.06,0,0.09c0.09,0,0.19,0,0.28,0
		c0-0.03,0-0.06,0-0.09C142.61,8.64,142.52,8.64,142.43,8.64z"/>
	<path class="st0" d="M149.2,52.29c1.19,0.59,1.9,1.6,2.47,2.75c0.02,0.04,0.05,0.08,0.05,0.12c-0.2,1.29,0.47,2.55,0.24,3.81
		c-0.16,0.86-0.12,1.72-0.26,2.55c-0.2,1.18-0.99,2.9-2.32,3.5c-1.18,0.54-2.37,0.95-3.7,0.91c-1.4-0.05-2.81-0.01-4.22-0.01
		c-0.22-1.12-0.3-15.3-0.14-25.87c1.62,0,3.24-0.02,4.86,0.01c0.34,0.01,0.67,0.21,1.01,0.26c0.35,0.06,0.67,0.1,1.02,0.25
		c1.73,0.73,2.51,2.07,2.97,3.81c0.37,1.38,0.3,2.75,0.2,4.1c-0.09,1.26-0.45,2.54-1.55,3.41C149.65,52.05,149.41,52.16,149.2,52.29
		z M147.46,54.85c-0.84-0.73-1.66-0.38-2.43-0.48c0,2.79,0,5.47,0,8.23c0.73-0.14,1.39-0.27,2.11-0.42c0.17-0.17,0.4-0.4,0.53-0.53
		c0.18-0.72,0.48-1.29,0.4-1.95c-0.07-0.6-0.01-1.21-0.01-1.82c0-0.65,0-1.31,0-1.85C147.82,55.57,147.62,55.18,147.46,54.85z
		 M145.01,43.62c0,2.51,0,4.79,0,7.19c0.76-0.11,1.45-0.2,2.03-0.28c0.29-0.58,0.51-1.01,0.72-1.43c0-1.29,0-2.6,0-3.75
		c-0.25-0.52-0.44-0.91-0.71-1.45C146.46,43.82,145.76,43.72,145.01,43.62z"/>
	<path class="st0" d="M59.86,33.57c-0.34-0.2-0.59-0.37-0.87-0.51c-1.65-0.83-1.98-1.37-2.48-3.14c-0.17-0.59-0.24-1.14-0.24-1.72
		c-0.01-5.33,0-10.67-0.01-16c0-1.33,0.41-2.56,1.22-3.56c0.67-0.82,1.72-1.31,2.74-1.45c1.06-0.15,2.18-0.22,3.25,0.22
		c1.56,0.65,2.47,1.78,2.95,3.39c0.29,0.99,0.26,1.98,0.26,2.98c0.01,4.16,0,8.33,0,12.49c0,0.7,0.05,1.41-0.01,2.1
		c-0.06,0.66-0.22,1.31-0.35,1.99c-0.34,0.81-0.84,1.53-1.52,2.15c-0.73,0.67-1.58,0.98-2.52,1.04
		C61.5,33.62,60.71,33.57,59.86,33.57z M62.7,29.54c0-6.18,0-12.3,0-18.41c-0.54-0.44-1.09-0.73-1.78-0.62
		c-0.78,0.6-0.99,1.45-0.99,2.38c0,5.34,0,10.68,0,16.04c0.31,0.43,0.63,0.86,0.91,1.25c0.46,0,0.83,0,1.2,0
		C62.29,29.96,62.52,29.73,62.7,29.54z"/>
	<path class="st0" d="M86.12,65.89c-1.25,0-2.41,0-3.62,0c0-8.58,0-17.14,0-25.79c0.53-0.13,1.13-0.04,1.71-0.05
		c0.6-0.01,1.21,0,1.9,0c0,3.02,0,5.99,0,8.96c0.07,0.01,0.14,0.03,0.21,0.04c1.08-2.94,2.16-5.89,3.31-9c0.49,0,1.13,0,1.77,0
		c0.65,0,1.3,0,2.09,0c-1.29,2.94-2.21,5.89-3.36,8.82c1.34,5.61,2.64,11.27,4.03,17c-1.36,0-2.52,0-3.82,0
		c-0.07-0.19-0.22-0.46-0.28-0.76c-0.12-0.56-0.05-1.23-0.33-1.69c-0.34-0.56-0.13-1.15-0.34-1.69c-0.2-0.53-0.34-1.08-0.46-1.63
		c-0.12-0.56-0.13-1.16-0.3-1.7c-0.43-1.39-0.56-2.85-0.96-4.38c-0.6,1.34-0.91,2.68-1.54,3.89c-0.12,0.22-0.02,0.55-0.02,0.83
		C86.12,61.08,86.12,63.42,86.12,65.89z"/>
	<path class="st0" d="M127.51,40.07c1.26,0,2.41,0,3.66,0c0,0.48,0,0.94,0,1.39c0,6.32,0.01,12.64-0.01,18.96
		c0,0.97,0.17,1.8,1.07,2.4c0.31,0,0.68,0,1.06,0c0.23-0.23,0.46-0.46,0.74-0.74c0-7.2,0-14.45,0-21.65
		c0.14-0.14,0.24-0.24,0.36-0.36c1.04,0,2.1,0,3.2,0c0.12,0.19,0.3,0.37,0.33,0.57c0.06,0.32,0.01,0.65,0.01,0.98
		c0,6.37,0.01,12.73-0.01,19.1c0,0.85-0.2,1.69-0.28,2.37c-0.63,1.65-1.87,2.45-3.37,3.1c-1,0-2.12,0-3.12,0
		c-0.46-0.22-0.81-0.41-1.17-0.56c-1.21-0.5-1.77-1.51-2.21-2.67c-0.22-0.57-0.27-1.13-0.27-1.72
		C127.51,54.23,127.51,47.21,127.51,40.07z"/>
	<path class="st0" d="M59.05,62.08c0.28,0.27,0.51,0.5,0.83,0.81c0.49-0.09,1.06-0.2,1.58-0.3c0.42-0.59,0.47-1.2,0.47-1.84
		c-0.02-6.42-0.01-12.83-0.01-19.25c0-0.46,0-0.92,0-1.41c1.22,0,2.38,0,3.66,0c0,0.39,0,0.79,0,1.2c0,6.79,0,13.58,0,20.37
		c0,2.57-2,4.54-4.61,4.54c-0.47,0-0.94-0.03-1.41,0.01c-0.97,0.06-1.71-0.41-2.41-0.98c-0.75-0.61-1.27-1.39-1.71-2.42
		c-0.02-0.5-0.07-1.15-0.23-1.83c-0.14-0.6-0.3-1.37,0.21-1.97c-0.53-0.61-0.23-1.34-0.24-2c-0.01-0.66-0.27-1.39,0.26-1.99
		c-0.09-0.29-0.27-0.58-0.27-0.87c-0.02-4.58-0.01-9.16-0.01-13.83c1.17-0.58,2.39-0.12,3.51-0.29c0.15,0.15,0.24,0.24,0.39,0.39
		C59.05,47.62,59.05,54.86,59.05,62.08z"/>
	<path class="st0" d="M12.69,7.45c1.21,0,2.36,0,3.57,0c0,3.53,0,7.03,0,10.59c0.96,0,1.87,0,2.83,0c0-3.5,0-7,0-10.56
		c1.24,0,2.43,0,3.66,0c0,8.58,0,17.14,0,25.76c-1.15,0-2.31,0-3.54,0c0.03,0.03-0.01,0-0.03-0.03c-0.03-0.03-0.05-0.08-0.05-0.12
		c0-3.84,0-7.67,0-11.56c-0.92,0-1.79,0-2.78,0c-0.01,0.49-0.03,1.03-0.03,1.58c-0.01,0.47,0.02,0.94-0.01,1.41
		c-0.02,0.4-0.14,0.8-0.14,1.2c0,0.41,0.11,0.82,0.14,1.24c0.03,0.42,0.01,0.84,0.01,1.26c0,0.47,0,0.94,0,1.41
		c0,0.42,0,0.84,0,1.26c0,0.47,0,0.94,0,1.41c0,0.32,0,0.63,0,0.97c-1.25,0-2.4,0-3.61,0C12.69,24.69,12.69,16.13,12.69,7.45z
		 M20.43,22.32c-0.03,0-0.06,0-0.09,0c0,0.09,0,0.19,0,0.28c0.03,0,0.06,0,0.09,0C20.43,22.51,20.43,22.42,20.43,22.32z
		 M14.05,28.42c0-0.03,0-0.06,0-0.09c-0.09,0-0.19,0-0.28,0c0,0.03,0,0.06,0,0.09C13.86,28.42,13.95,28.42,14.05,28.42z"/>
	<path class="st0" d="M75.38,39.76c0.55,0.25,0.97,0.38,1.34,0.6c1.38,0.82,2.18,1.92,2.43,3.62c0.21,1.47,0.12,2.92,0.22,4.34
		c-0.17,0.17-0.3,0.31-0.47,0.48c-1.07-0.49-2.22-0.29-3.48-0.34c0-1.11,0.02-2.22-0.01-3.33c-0.02-0.53-0.13-1.05-0.2-1.55
		c-0.37-0.18-0.68-0.34-0.93-0.46c-0.87,0.08-1.38,0.52-1.67,1.59c0,5.14,0.01,10.62-0.01,16.1c0,0.86,0.39,1.46,0.99,2
		c0.36,0,0.73,0,1.16,0c0.18-0.21,0.4-0.45,0.7-0.79c0-1.69,0-3.5,0-5.35c1.3,0,2.55,0,3.92,0c0,1.42,0.12,2.87-0.05,4.29
		c-0.08,0.69-0.12,1.42-0.33,2.1c-0.37,1.18-1.12,2.04-2.23,2.58c-0.31,0.15-0.61,0.35-0.98,0.56c-0.67,0-1.42-0.04-2.16,0.01
		c-1.81,0.11-3.57-1-4.32-2.96c-0.21-0.54-0.37-1.17-0.36-1.83c0.05-5.62,0.05-11.24,0.01-16.86c-0.01-1.34,0.6-2.38,1.31-3.39
		c0.42-0.59,2.32-1.38,3.07-1.4C74.06,39.75,74.81,39.76,75.38,39.76z"/>
	<path class="st0" d="M108.92,56.66c1.26,0,2.42,0,3.6,0c0.12,0.2,0.32,0.39,0.32,0.58c0.03,0.94,0.17,1.91-0.03,2.8
		c-0.19,0.86-0.12,1.72-0.27,2.56c-0.11,0.62-0.43,1.26-0.83,1.75c-0.63,0.76-1.29,1.55-2.33,1.85c-0.93,0-1.87,0.02-2.8,0
		c-1.55-0.04-3.53-1.58-3.86-2.88c-0.14-0.56-0.3-1.11-0.29-1.71c0.03-5.67,0.04-11.34,0-17.01c-0.01-1.12,0.42-2.09,0.91-3
		c0.4-0.74,1.26-1.19,2.03-1.48c2.07-0.79,4.67-0.44,6.29,1.42c0.2,0.23,0.34,0.51,0.5,0.78c0.13,0.23,0.24,0.46,0.36,0.7
		c0.13,1.76,0.27,3.55,0.41,5.4c-1.37,0-2.65,0-3.97,0c-0.25-1.61,0.25-3.3-0.3-4.86c-0.58-0.2-0.96-0.6-1.65-0.18
		c-0.59,0.36-0.74,0.82-0.9,1.35c-0.07,0.21-0.01,0.47-0.01,0.7c0,5.15-0.01,10.31,0.01,15.46c0,0.52,0.14,1.04,0.21,1.48
		c0.64,0.49,1.27,0.5,1.9,0.46c0.23-0.23,0.47-0.46,0.7-0.69C108.92,60.33,108.92,58.55,108.92,56.66z"/>
	<path class="st0" d="M44.2,7.42c2.24,0.14,4.74-0.42,7.4,0.81c0.53,0.49,1.37,1.2,1.72,2.28c0.19,0.58,0.34,1.17,0.47,1.78
		c0.3,1.46,0.25,2.92,0.23,4.38c-0.01,0.48-0.18,0.95-0.26,1.43c-0.07,0.43,0.19,0.94-0.28,1.29c-0.33,1.83-1.71,2.58-3.24,3.23
		c-0.84,0.35-1.7,0.22-2.68,0.29c0,0.4,0,0.8,0,1.21c0,2.71,0,5.43,0,8.14c0,0.38,0.04,0.76-0.43,1c-1,0-2.06,0-3.21,0
		c-0.09-0.21-0.23-0.44-0.3-0.69c-0.05-0.17-0.01-0.37-0.01-0.56c0-7.77,0-15.53,0.01-23.3C43.62,8.27,43.41,7.74,44.2,7.42z
		 M47.48,19.73c0.52-0.24,0.78-0.42,1.06-0.48c0.3-0.06,0.63-0.01,0.84-0.01c0.3-0.3,0.5-0.5,0.63-0.63
		c0.53-2.37,0.52-4.66,0.03-6.79c-0.69-1.02-1.72-0.5-2.49-1c0,0.54,0.03,0.96-0.01,1.38c-0.04,0.44,0.2,0.94-0.27,1.28
		c0.07,0.07,0.19,0.13,0.19,0.2C47.48,15.58,47.48,17.49,47.48,19.73z M53.27,16.42c0.03,0,0.06,0,0.09,0c0-0.09,0-0.19,0-0.28
		c-0.03,0-0.06,0-0.09,0C53.27,16.23,53.27,16.33,53.27,16.42z"/>
	<path class="st0" d="M26.18,33.29c0-8.66,0-17.22,0-25.83c2.87,0,5.72,0,8.64,0c0,1.15,0,2.34,0,3.63
		c-1.54-0.12-3.09,0.18-4.71-0.2c-0.28,0.17-0.3,0.51-0.3,0.91c0.02,1.97,0.01,3.93,0.01,5.89c0.14,0.14,0.28,0.28,0.46,0.46
		c1.02,0,2.08,0,3.17,0c0,1.11,0,2.18,0,3.29c-1.17,0-2.33,0-3.56,0c0,2.7,0,5.35,0,8.17c0.04,0.04,0.21,0.19,0.33,0.31
		c1.64-0.54,3.26-0.15,4.92-0.3c0.61,1.08,0.16,2.22,0.33,3.25c-0.17,0.17-0.3,0.3-0.44,0.44C32.11,33.29,29.21,33.29,26.18,33.29z
		 M29.16,10.79c-0.03,0-0.06,0-0.09,0c0,0.09,0,0.19,0,0.28c0.03,0,0.06,0,0.09,0C29.16,10.98,29.16,10.89,29.16,10.79z"/>
	<path class="st0" d="M35.02,40.04c0.13,0.13,0.23,0.23,0.38,0.38c0,0.83,0,1.71,0,2.56c-0.1,0.2-0.2,0.4-0.33,0.67
		c-11.64,0-23.34,0-35.07,0c0-1.18,0-2.34,0-3.6c0.61,0,1.2,0,1.8,0c0.56,0,1.13,0,1.69,0c0.61,0,1.22,0,1.83,0
		c0.56,0,1.13,0,1.69,0c0.61,0,1.22,0,1.83,0c0.56,0,1.13,0,1.69,0c0.61,0,1.22,0,1.83,0c0.56,0,1.13,0,1.69,0c0.61,0,1.22,0,1.83,0
		c0.61,0,1.22,0,1.83,0c0.56,0,1.13,0,1.69,0c0.61,0,1.22-0.03,1.83,0.01c0.54,0.03,1.08,0.06,1.62,0.12
		c0.5,0.06,1.1-0.12,1.67-0.13c0.56,0,1.13,0,1.69,0c0.61,0,1.22,0,1.83,0c0.56,0,1.13,0,1.69,0c0.61,0,1.22,0,1.83,0
		c0.56,0,1.13,0,1.69,0C33.84,40.04,34.45,40.04,35.02,40.04z"/>
	<path class="st0" d="M75.71,33.27c-1.25,0-2.41,0-3.66,0c0-0.47,0-0.93,0-1.38c0-6.6,0-13.2-0.01-19.8c0-0.44,0.2-0.97-0.39-1.21
		c-0.8,0.43-1.69,0.08-2.53,0.22c-0.14-0.14-0.28-0.26-0.43-0.41c0-1.05,0-2.11,0-3.22c3.43,0,6.84,0,10.3,0
		c0.09,0.09,0.22,0.22,0.35,0.35c0.06,2.62,0.06,2.62-0.38,3.26c-1.03,0-2.1,0-3.25,0C75.71,18.49,75.71,25.87,75.71,33.27z"/>
	<path class="st0" d="M0.02,7.44c3.46,0,6.87,0,10.25,0c0.12,0.12,0.22,0.22,0.36,0.36c0,0.93,0,1.9,0,2.89
		c-0.12,0.12-0.25,0.25-0.38,0.38c-1.03,0-2.06,0-3.09,0c-0.03,0.03-0.07,0.06-0.1,0.1c-0.02,0.03-0.05,0.08-0.05,0.12
		c0,7.3,0,14.6,0,21.95c-1.19,0-2.35,0-3.57,0c0.02,0.02-0.02-0.01-0.04-0.04c-0.02-0.03-0.05-0.08-0.05-0.12c0-7.3,0-14.6,0-21.86
		c-0.13-0.13-0.23-0.23-0.33-0.33c-0.86,0.37-1.77,0.11-2.61,0.2c-0.13-0.13-0.23-0.23-0.38-0.38C0.02,9.69,0.02,8.63,0.02,7.44z
		 M5.79,18.11c-0.03,0-0.06,0-0.09,0c0,0.09,0,0.19,0,0.28c0.03,0,0.06,0,0.09,0C5.79,18.29,5.79,18.2,5.79,18.11z"/>
	<path class="st0" d="M47.69,62.54c1.59,0,3.19,0,4.89,0c0.01,0.54,0.03,1.08,0.03,1.63c0.01,0.56,0,1.11,0,1.71c-3,0-5.94,0-9.01,0
		c0-0.79,0-1.62,0-2.45c0-0.89,0-1.78,0-2.67c0-0.84,0-1.69,0-2.53c0-0.84,0-1.69,0-2.53c0-0.89,0-1.78,0-2.67c0-0.84,0-1.69,0-2.53
		c0-0.84-0.05-1.69,0.02-2.53c0.07-0.81-0.32-1.67,0.25-2.42c-0.55-0.8-0.18-1.7-0.25-2.55c-0.07-0.84-0.01-1.69-0.01-2.54
		c0.13-0.13,0.27-0.26,0.45-0.44c1.11,0.19,2.33-0.31,3.53,0.33c0,7.4,0,14.74,0,22.09C47.6,62.47,47.66,62.51,47.69,62.54z"/>
	<path class="st0" d="M124.64,65.89c-2.9,0-5.74,0-8.63,0c0-8.58,0-17.14,0-25.79c0.53-0.13,1.12-0.04,1.71-0.06
		c0.6-0.02,1.21,0,1.9,0c0,7.51,0,14.98,0,22.49c1.72,0,3.35,0,5.02,0C124.64,63.64,124.64,64.71,124.64,65.89z"/>
</g>
</svg>
